<?xml version="1.0" encoding="iso-8859-1"?>
<!-- Generator: Adobe Illustrator 19.0.0, SVG Export Plug-In . SVG Version: 6.00 Build 0)  -->
<svg version="1.1" id="Layer_1" xmlns="http://www.w3.org/2000/svg" xmlns:xlink="http://www.w3.org/1999/xlink" x="0px" y="0px"
	 viewBox="0 0 512 512" style="enable-background:new 0 0 512 512;" xml:space="preserve">
<g>
	<g>
		<path d="M482.644,38.764c-46.361-51.246-123.348-50.602-169.505-4.455L101.867,245.247c-0.056,0.056-0.11,0.112-0.165,0.168
			c-15.551,15.971-24.115,36.96-24.115,59.098v107.014L5.632,483.482c-6.524,6.523-6.524,17.101,0,23.625s17.101,6.524,23.625,0
			l71.953-71.953h107.014c22.14,0,43.129-8.565,59.098-24.115c0.059-0.057,0.116-0.114,0.172-0.169
			c185.632-186.053,124.382-124.716,208.807-209.141C519.094,158.933,524.231,84.728,482.644,38.764z M110.998,304.514
			c0-13.346,5.172-26.023,14.564-35.71L312.581,82.081v94.452l-61.927,61.927c-0.002,0.001-0.004,0.003-0.006,0.006l-38.302,38.302
			v-15.355c0-9.226-7.48-16.706-16.706-16.706c-9.226,0-16.706,7.48-16.706,16.706v48.766l-67.937,67.937V304.514z M243.933,387.179
			c-9.687,9.392-22.364,14.562-35.709,14.562h-73.602l67.937-67.937h48.766c9.226,0,16.706-7.48,16.706-16.706
			c0-9.226-7.48-16.706-16.706-16.706H235.97l33.412-33.412h94.476L243.933,387.179z M452.678,178.101l-55.47,55.469h-94.413
			c3.056-3.056,100.171-100.171,105.128-105.128c6.524-6.523,6.524-17.101,0-23.625c-6.523-6.523-17.101-6.523-23.625,0
			l-38.305,38.305V49.949C379.181,25.089,427.6,27.72,457.87,61.177C486.638,92.974,484.26,146.518,452.678,178.101z" fill="#fff"/>
	</g>
</g>
<g>
</g>
<g>
</g>
<g>
</g>
<g>
</g>
<g>
</g>
<g>
</g>
<g>
</g>
<g>
</g>
<g>
</g>
<g>
</g>
<g>
</g>
<g>
</g>
<g>
</g>
<g>
</g>
<g>
</g>
</svg>
