<svg xmlns="http://www.w3.org/2000/svg" viewBox="0 0 1500 1200"><defs><style>.cls-1{opacity:.1}.cls-10,.cls-11,.cls-12,.cls-13,.cls-2,.cls-4,.cls-5,.cls-6,.cls-7,.cls-8,.cls-9{fill:none;stroke-linecap:round;stroke-miterlimit:10;stroke-width:9px}.cls-2{stroke:#000}.cls-3{opacity:.5}.cls-4{stroke:#7fc242}.cls-5{stroke:#00ade0}.cls-6{stroke:#009c72}.cls-7{stroke:#00759f}.cls-8{stroke:#3bb65d}.cls-9{stroke:#007e50}.cls-10{stroke:#3f793b}.cls-11{stroke:#3f913b}.cls-12{stroke:#006c56}.cls-13{stroke:#2d954a}.cls-14{fill:#252c34}</style></defs><title>home-code-bg-alt-01</title><g id="mid_right" data-name="mid right" class="cls-1"><path class="cls-2" d="M1205.37 551.57h52.58M1231.66 551.57h92.81M1243.07 571h53.3M1139.95 571h53.3M1213.8 571h43.56M1185.78 551.57h-17.58M1310.53 590.01h52.58M1270 667.74h52.58M1310.53 590.01h17.57M1276.36 590.01h-101.12M1409.27 668.18h-101.12M1220.74 570.57A19.44 19.44 0 0 1 1201.3 590M1462.52 648.74h44.75M1484.39 668.18h17.57M1543.96 668.18h-59.57M1530.46 648.74h-32.6M1542.92 629.31h-92.81M1587.04 493.38h-92.81M1443.09 648.74h-43.98M1349.16 318.78h-68.99M1349.16 318.78h-23.06M1375.31 338.21h-43.63M1369.12 338.21h68.99M1465.74 338.21h121.77M1393.99 318.78h132.67M1463.53 318.78h122.49M1497 338.21a19.44 19.44 0 0 1 19.44-19.44M1434.93 338.64l-38.44 38.45M1435.17 609.44h-8.79M1400.12 590.01h-17.57M1419.22 570.57h-17.58M1483.77 609.44h-33.26M1465.71 590.01h-45.68M1382.55 570.57h-45.68M1647.61 609.44h-145.14M1445.47 590.01h52.59M1478.65 570.57h53.3M1413.71 570.57h43.56M1449.78 628.88a19.44 19.44 0 0 1 19.44-19.44M1459.5 551.57l-38.45 38.44M1505.91 377.09h-55.85M1376.15 377.09h113.49M1527.49 357.65h-83.56M1342.92 435.07h-68.99M1342.92 435.07h-23.05M1316.23 473.95h-23.06M1369.08 454.51h-43.63M1268.13 473.95h-59.93M1423.98 396.2h36.88M1362.89 454.51h68.99M1459.51 454.51h121.76M1324.29 415.64h121.77M1460.86 396.2h58.15M1394.21 473.95h83.94M1309 473.95h57.15M1445.45 415.64h33.06M1493.62 396.2h23.06M1387.76 435.07h132.66M1457.3 435.07h114.3M1490.79 454.51a19.44 19.44 0 0 1 19.44-19.44M1432.93 454.94l-38.44 38.44M1388.74 628.89h-17.58M1233.43 628.89h-17.57M1167.25 609.45h-8.78M1334.68 628.89h-30.71M1321.19 628.89h-52.59M1432.71 609.45h-99.22M1215.86 609.45h-33.26M1379.7 609.45h-145.14M1137.62 628.89h59.12M1181.87 628.89a19.44 19.44 0 0 1 19.44-19.44M1266.24 609.45A19.44 19.44 0 0 0 1246.8 590M1352.93 628.89l-19.44-19.44M1341.47 648.52h-66.49M1428.27 648.52h-68.84M1378.02 648.52h-17.57M1218.64 648.52h97.24M1511.52 512.6h-66.49M1388.7 512.6h97.23M1269.16 629.3l38.44 38.44M1496.78 532.13h17.58M1380.89 493.38h34.82M1350.51 551.57h145.15M1376.77 280.33h52.59M1297.77 280.33h92.81M1477.99 280.33h45.68M1396.43 260.9h45.68M1498.23 280.33h-52.59M1465.05 299.77h-53.3M1529.99 299.77h-43.56M1409.55 260.9a19.44 19.44 0 0 0 19.45 19.43M1484.2 318.78l38.45-38.45M1338.22 299.77h36.88M1295 299.77h59.11M1509.23 493.38h-59.12"/></g><g id="top_right" data-name="top right" class="cls-1"><path class="cls-2" d="M1315.37 83.57h52.58M1341.66 83.57h92.81M1353.07 103h53.3M1249.95 103h53.3M1323.8 103h43.56M1295.78 83.57h-17.58M1420.53 122.01h52.58M1380 199.74h52.58M1420.53 122.01h17.57M1386.36 122.01h-101.12M1519.27 200.18h-101.12M1330.74 102.57A19.44 19.44 0 0 1 1311.3 122M1510.12 122.01h-17.57M1492.55 102.57h-45.68M1426.23 5.95h-23.06M1378.13 5.95h-59.93M1504.21 5.95h83.94M1419 5.95h57.15M1542.93-13.06l-38.44 38.44M1498.74 160.89h-17.58M1343.43 160.89h-17.57M1277.25 141.45h-8.78M1444.68 160.89h-30.71M1431.19 160.89h-52.59M1542.71 141.45h-99.22M1325.86 141.45h-33.26M1489.7 141.45h-145.14M1247.62 160.89h59.12M1291.87 160.89a19.44 19.44 0 0 1 19.44-19.44M1376.24 141.45A19.44 19.44 0 0 0 1356.8 122M1462.93 160.89l-19.44-19.44M1451.47 180.52h-66.49M1538.27 180.52h-68.84M1488.02 180.52h-17.57M1328.64 180.52h97.24M1498.7 44.6h97.23M1379.16 161.3l38.44 38.44M1490.89 25.38h34.82M1460.51 83.57h145.15"/></g><g id="bottom_left" data-name="bottom left" class="cls-1"><path class="cls-2" d="M65.16 802.71h68.99M232.26 861.02h68.99M-72.99 802.71H-4M-38.5 802.71H83.27M-23.53 822.15H46.4M206.49 686.01h69.93M151.2 763.84h23.06M238.03 783.28h11.53M284 802.71h23.06M232.26 861.02h23.06M258.96 822.15h23.05M18.37 763.84h40.28M36.07 763.84h68.99M-110.25 783.28H19.92M174.26 783.28h43.64M206.11 841.59h43.63M197.96 802.71h59.93M307.06 822.15h59.93M322.14 744.19h59.93M151.2 899.9h-36.87M-40.7 783.28h190.43M12.03 841.59H-96.75M212.3 841.59h-68.99M249.28 705.33h-53.2M224.51 802.71h-68.99M115.68 841.59H-6.08M250.89 880.46H129.13M345.2 705.44h-23.06M267.67 705.44h77.53M297.01 724.88H366M337.55 724.99h58.88M263.89 666.57h58.87M275.12 724.88h-22.47M33.61 899.9h-69.93M114.33 899.9H57.18M6.04 919.33h-68.99M58.85 919.33h-70.92M180.98 822.15h-69.93M266.18 822.15h-57.15M276.91 763.84h-77.56M294.1 744.31h-77.56M114.33 919.33H57.18M25.91 647.02H2.86M108.16 647.02h92.79M154.41 724.88h98.24M18.69 647.02h57.15M363.34 686.01h-57.7M129.74 880.46h-23.06M73.89 685.9H4.9M212.04 685.9h-68.99M177.55 685.9H55.78M237.75 685.9h23.06M81.57 899.9H58.51M58.81 880.46H18.53M-110.23 899.9H17.35M41.12 880.46h-98.29M-38.2 666.46h48.33M58.01 666.46h40.28M199.21 666.46h30.88M75.7 666.46h98.29M187.43 861.02H54.76M117.89 861.02H-4.6M84.4 841.59A19.44 19.44 0 0 1 65 861M128.78 763.84a19.44 19.44 0 0 1-19.44 19.44M54.13 647a19.44 19.44 0 0 1-19.44 19.44M5.9 919.33a38.87 38.87 0 0 1 38.87 38.87M34.69 783.28a19.44 19.44 0 0 0 19.44 19.44M173.99 705.44l19.44 19.44M191.23 686.01l19.44-19.44M161.21 841.16l38.44-38.45M149.27 705.33h-23.05M-108.2 705.33H5.73M71.12 705.33h78.15M-34.57 705.33h76.24M9.46 744.21h87.23M54.33 724.77h68.99M38.51 724.77h33.93M-93.94 724.77H3.2M170.6 744.21H43.03M250.23 783.28h87.24M411.38 783.28H283.81M36.07 763.43l-38.45-38.44M123.32 725.09l38.44 38.45M516.74 744.19h-68.99M328.82 802.93h57.7M399.19 744.19h23.06M310.61 744.19h23.06M422.25 724.75h59.93M507.96 783.07h-70.77M319.19 763.64h130.16M388.73 763.64h190.43M484.44 783.07l19.43-19.43M362.26 802.71h90.32M428.19 802.71h23.06"/></g><g id="mid_left" data-name="mid left" class="cls-1"><path class="cls-2" d="M246.17 527.72h71.13M320.77 527.72h-25.55M214.95 508.29H189.4M174.92 624.69H75.45M240.82 508.29H108.15M261.83 566.59l-38.77 38.77M56.87 566.59h-68.99M56.87 566.59H33.81M232.45 605.36H209.4M83.03 547.16H39.4M277.11 547.16h108.78M76.84 547.16h68.99M173.45 547.16h121.77M305.28 566.59h74.36M116.57 605.31h74.35M101.71 566.59h132.66M171.25 566.59h114.3M204.74 547.16a19.44 19.44 0 0 0 19.44 19.44M301.52 527.72a38.87 38.87 0 0 0 38.87 38.87M146.88 546.73l-38.45-38.44M115.47 586a19.44 19.44 0 0 0 19.44-19.44M101.32 624.69l-38.77-38.77M-22.58 585.82H14.3M95.01 585.82h69.93M14.3 585.82h58.15M47.06 585.82h23.06M238.86 585.82H149.9M309.21 605.36h-88.95"/></g><g id="top_left" data-name="top left" class="cls-1"><path class="cls-2" d="M69.11 220.17h68.99M43.33 45.16h69.93M-11.95 122.99h23.06M74.87 142.43H86.4M120.85 161.86h23.06M69.11 220.17h23.06M95.8 181.3h23.06M-129.84 414.54H2.83M11.11 142.43h43.63M42.95 200.74h43.64M34.8 161.87h59.93M143.91 181.3h59.93M158.98 103.34h59.93M49.14 200.74h-68.99M86.12 64.49h-53.2M61.35 161.86H-7.64M87.74 239.61H-34.03M182.05 64.59h-23.06M104.52 64.59h77.53M133.85 84.03h69M174.4 84.14h58.88M100.73 25.72h58.88M111.97 84.03H89.5M17.82 181.3h-69.93M103.03 181.3H45.88M113.75 122.99H36.19M130.95 103.47H53.39M-54.99 6.18h92.78M-8.74 84.03H89.5M200.19 45.16h-57.7M48.89 45.05H-20.1M14.39 45.05h-121.76M74.6 45.05h23.05M36.06 25.61h30.88M-87.45 25.61h98.28M24.27 220.17h-132.66M150.5 453.41H17.83M10.83 64.59l19.44 19.44M28.08 45.16l19.43-19.44M-1.94 200.31l38.44-38.44M33.58 453.2l-38.44-38.45M7.45 103.36h-127.58M87.08 142.43h87.23M248.23 142.43H120.65M-39.84 84.25l38.45 38.44M353.59 103.34H284.6M165.66 162.08h57.7M236.04 103.34h23.05M147.45 103.34h23.06M259.09 83.91h59.93M344.8 142.22h-70.77M156.03 122.79H286.2M225.57 122.79H416M321.28 142.22l19.44-19.43M199.1 161.86h90.32M265.04 161.86h23.05"/></g><g id="blue-green"><g class="cls-3"><path class="cls-4" d="M5.31 102.95h33.1"/><path class="cls-5" d="M51.71 102.95h26.34M132.66 122.67h38.76"/><path class="cls-6" d="M7.94 141.86h52.72"/><path class="cls-7" d="M63.28 102.95h14.77"/><path class="cls-6" d="M27.18 122.67h86.78"/><path class="cls-8" d="M146.05 141.86h45.13M8.23 161.26h33.73"/><path class="cls-5" d="M58.01 161.26h45.74"/><path class="cls-4" d="M82.2 141.86h75.69M118.08 161.26"/><path class="cls-9" d="M85.42 161.26"/><path class="cls-10" d="M38.41 102.95"/><path class="cls-11" d="M120.85 141.86"/><path class="cls-12" d="M50.67 122.67h63.28"/><path class="cls-7" d="M58.01 161.26h10.34"/><path class="cls-13" d="M157.89 141.86h-11.84"/></g><g class="cls-3"><path class="cls-4" d="M1435.44 589.01h21.87M1376.32 608.44h72.21"/><path class="cls-7" d="M1457.31 589.01h33.89"/><path class="cls-10" d="M1440.28 608.44h21.56"/><path class="cls-5" d="M1477.53 589.01h13.67M1490.23 608.44h23.89"/><path class="cls-7" d="M1500.73 608.44h58.29"/><path class="cls-4" d="M1461.84 608.44"/><path class="cls-13" d="M1413.96 627.88h78.68"/><path class="cls-8" d="M1455.2 627.88h72.64"/><path class="cls-13" d="M1457.31 589.02"/></g><g class="cls-3"><path class="cls-6" d="M276.73 686.01h-75.66"/><path class="cls-4" d="M121.69 686.01h21.86M62.56 705.44h72.22"/><path class="cls-12" d="M191.42 686.01h41.48"/><path class="cls-7" d="M143.55 686.01h33.9"/><path class="cls-14" d="M231.14 724.88h33.89"/><path class="cls-10" d="M126.53 705.44h21.56"/><path class="cls-5" d="M163.77 686.01h13.68M176.48 705.44h23.89"/><path class="cls-7" d="M260.22 705.44h18.32M186.97 705.44h58.29"/><path class="cls-4" d="M148.09 705.44"/><path class="cls-13" d="M100.2 724.88h78.68"/><path class="cls-8" d="M141.44 724.88h72.65"/><path class="cls-13" d="M143.55 686.02"/><path class="cls-5" d="M230.41 724.89h45.74"/><path class="cls-4" d="M296.48 724.89"/><path class="cls-9" d="M257.82 724.89"/><path class="cls-7" d="M230.41 724.89h10.34"/></g></g></svg>